PathFileType	4	(X/Y/Z)	C:/Users/opensim2020/Desktop/walking_exp_matlab/subject01_walking09_straight_02.trc	
DataRate	CameraRate	NumFrames	NumMarkers	Units	OrigDataRate	OrigDataStartFrame	OrigNumFrames	
100.00	100.00	4	43	mm	100.00	1891	362	
Frame#	Time	LFHD			RFHD			LBHD			RBHD			C7			T10			CLAV			STRN			RBAK			LSHO			LUPA			LELB			LFRM			LWRA			LWRB			LFIN			RSHO			RUPA			RELB			RFRM			RWRA			RWRB			RFIN			LASI			RASI			LPSI			RPSI			LTHI			LKNE			LTIB			LANK			LHEE			LTOE			RTHI			RKNE			RTIB			RANK			RHEE			RTOE			*39			*40			*41			*42			
		X1	Y1	Z1	X2	Y2	Z2	X3	Y3	Z3	X4	Y4	Z4	X5	Y5	Z5	X6	Y6	Z6	X7	Y7	Z7	X8	Y8	Z8	X9	Y9	Z9	X10	Y10	Z10	X11	Y11	Z11	X12	Y12	Z12	X13	Y13	Z13	X14	Y14	Z14	X15	Y15	Z15	X16	Y16	Z16	X17	Y17	Z17	X18	Y18	Z18	X19	Y19	Z19	X20	Y20	Z20	X21	Y21	Z21	X22	Y22	Z22	X23	Y23	Z23	X24	Y24	Z24	X25	Y25	Z25	X26	Y26	Z26	X27	Y27	Z27	X28	Y28	Z28	X29	Y29	Z29	X30	Y30	Z30	X31	Y31	Z31	X32	Y32	Z32	X33	Y33	Z33	X34	Y34	Z34	X35	Y35	Z35	X36	Y36	Z36	X37	Y37	Z37	X38	Y38	Z38	X39	Y39	Z39	X40	Y40	Z40	X41	Y41	Z41	X42	Y42	Z42	X43	Y43	Z43	

1	0.000	1496.94861	1329.05005	1680.08923	1387.15698	1303.07263	1687.14001	1474.51440	1443.38477	1635.56799	1357.69934	1419.86438	1642.16235	1432.39294	1480.33984	1444.49402	1415.09436	1516.50049	1151.23535	1437.06921	1338.37415	1376.06836	1441.25586	1295.19983	1221.27551	1349.84924	1533.19702	1250.63867	1595.43909	1405.73486	1402.26025	1679.00598	1422.16699	1217.64075	1682.09875	1411.11621	1064.93420	1707.37512	1341.20972	974.24536	1692.93689	1227.62244	893.31036	1711.94019	1278.99097	868.81488	1727.51904	1212.22144	820.05585	1282.93030	1395.47046	1408.14661	1177.75842	1452.08618	1208.47375	1175.07153	1452.77197	1083.16943	1147.83533	1422.98352	965.49817	1174.73389	1345.38428	849.18182	1131.44934	1385.81116	849.63702	1137.14502	1347.31226	772.66345	1527.54639	1349.82898	941.57428	1310.67151	1334.14966	955.07904	1459.36523	1532.30933	952.43250	1314.33667	1518.25305	956.29639	1567.07837	1393.13916	608.82715	1549.89099	1409.33923	474.40939	1554.06531	1474.90369	294.29095	1495.80908	1513.55090	79.43302	1440.31702	1556.30981	51.04202	1508.49500	1366.36719	40.41535	1243.59351	1290.11230	633.00897	1267.56067	1247.51929	479.15179	1262.49536	1330.66382	323.04538	1307.63123	1393.31726	125.74414	1361.94482	1442.98755	94.18426	1300.05640	1266.83508	60.39638	1408.38562	1316.62024	1720.55652	-3101.93506	1973.09656	1023.29785	-3140.68384	2012.46313	1021.88971			 
2	0.010	1497.41846	1322.93311	1679.84631	1387.65771	1297.21228	1686.83350	1477.33350	1439.87878	1636.02246	1358.25098	1413.83752	1641.62219	1433.44324	1473.98486	1444.15991	1416.27710	1510.56250	1151.03210	1437.81042	1332.10864	1375.69519	1442.08423	1289.05627	1220.84143	1351.06494	1527.19092	1250.44885	1596.32117	1398.95007	1402.05969	1680.23572	1415.02869	1217.59106	1683.39575	1403.63135	1064.82593	1708.21497	1332.40784	974.75897	1693.62402	1217.74878	895.64917	1712.92676	1268.85925	870.68268	1728.20288	1201.23767	822.64502	1283.99377	1389.71960	1408.07251	1179.07129	1446.87463	1208.12183	1176.32019	1447.93689	1082.89001	1148.83252	1418.72253	965.12671	1175.44788	1341.62195	848.44562	1132.24097	1382.11560	849.13239	1137.73853	1344.00647	771.96997	1528.43005	1344.24182	940.97626	1311.65405	1328.22632	954.86060	1460.05896	1526.65503	952.23010	1315.10547	1512.48120	956.20776	1567.49487	1389.01453	608.15942	1550.09668	1406.10657	473.81290	1554.11377	1472.85730	294.19449	1495.51208	1512.93616	79.19497	1440.17944	1556.07214	51.57261	1508.45740	1366.16602	40.21061	1244.12561	1284.97058	632.79102	1268.71033	1240.77747	479.18564	1263.66492	1317.47241	319.90710	1309.10388	1371.55859	120.10383	1363.44360	1419.81824	86.65700	1302.06372	1242.21765	60.16456	1408.73254	1310.72803	1720.22864	-3101.90405	1973.08838	1023.42804	-3140.68262	2012.46912	1021.94000			 
3	0.020	1497.86157	1316.78528	1679.57507	1387.94727	1291.11768	1686.48682	1478.34595	1434.07898	1635.70972	1359.04468	1407.96863	1641.08887	1434.38428	1467.62988	1443.83716	1417.31812	1504.55151	1150.77893	1438.34827	1325.77747	1375.15808	1442.76904	1282.89490	1220.35071	1352.20923	1521.14124	1250.16650	1597.16516	1392.24927	1401.85571	1681.36902	1407.83789	1217.52234	1684.59595	1396.13843	1064.66284	1709.15027	1323.72009	975.38324	1694.29126	1207.97791	898.00800	1713.24719	1258.55127	871.90009	1728.71338	1190.36963	825.13763	1284.72192	1383.57629	1407.48914	1180.16089	1441.54456	1207.80286	1177.63464	1443.02234	1082.56604	1149.90002	1414.51563	964.76038	1175.98157	1337.65723	847.74615	1133.12439	1378.42920	848.54407	1138.17578	1340.84827	771.15472	1529.43213	1338.66858	940.46130	1312.81885	1322.22852	954.61572	1460.65991	1520.91907	951.95117	1315.84839	1506.60266	956.16809	1567.94238	1384.89941	607.52423	1550.39587	1402.91138	473.29865	1554.27087	1470.83716	294.22806	1495.35645	1512.54700	79.49767	1440.05859	1555.92957	52.08765	1508.60010	1366.14697	40.20725	1244.96814	1279.76599	632.36200	1270.04993	1234.17603	479.06073	1264.46704	1304.31348	317.11545	1310.36511	1349.43347	114.85622	1363.84912	1396.90295	79.79125	1303.77197	1217.56677	60.38250	1409.06604	1304.78918	1719.85522	-3101.98779	1973.13965	1023.41791	-3140.74390	2012.55188	1022.01593			 
4	0.030	1498.13428	1310.60864	1679.22937	1388.20740	1285.19470	1686.12183	1478.06641	1426.81812	1634.80945	1359.61145	1401.94958	1640.51941	1435.21423	1461.35071	1443.48352	1418.30725	1498.45898	1150.45361	1439.06274	1319.32129	1374.83838	1443.42273	1276.66492	1219.84863	1353.18152	1514.90430	1249.76392	1597.73853	1385.50281	1401.51953	1682.25854	1400.64319	1217.33643	1685.68481	1388.67285	1064.46497	1710.01587	1315.04541	975.99677	1694.81714	1198.29004	900.26270	1714.04614	1248.55151	873.54004	1729.20007	1179.62524	827.66187	1285.56482	1377.54529	1407.00732	1181.10217	1436.33557	1207.48535	1178.53711	1438.02966	1082.24231	1150.87793	1410.10156	964.30341	1176.38745	1333.71545	846.93707	1133.85132	1374.72363	847.94983	1138.79089	1337.36060	770.32318	1530.49097	1333.06091	939.95923	1313.86279	1316.23804	954.31360	1461.22778	1515.08716	951.67090	1316.50488	1500.46533	956.04584	1568.34900	1380.73621	606.81903	1550.59753	1399.80457	472.64499	1554.27490	1468.95862	294.05920	1494.79041	1511.84070	79.47567	1439.83411	1555.63867	52.59312	1508.20667	1365.66882	39.89410	1245.65417	1274.94934	631.68134	1271.22791	1228.13586	479.23416	1265.20422	1291.46643	314.59052	1311.25500	1327.30322	110.05592	1365.83545	1372.48914	73.57926	1305.36780	1193.36755	60.69909	1409.47241	1298.75952	1719.54773	-3101.93555	1973.11902	1023.44739	-3140.75659	2012.41162	1021.93738			 
